<?xml version="1.0" standalone="no"?>
<!DOCTYPE svg PUBLIC "-//W3C//DTD SVG 20010904//EN"
 "http://www.w3.org/TR/2001/REC-SVG-20010904/DTD/svg10.dtd">
<svg version="1.0" xmlns="http://www.w3.org/2000/svg"
 width="384.000000pt" height="384.000000pt" viewBox="0 0 384.000000 384.000000"
 preserveAspectRatio="xMidYMid meet">

<g transform="translate(0.000000,384.000000) scale(0.100000,-0.100000)"
fill="#000000" stroke="none">
<path d="M1680 3824 c-148 -22 -175 -29 -192 -48 -118 -137 -154 -165 -246
-192 -57 -18 -177 -19 -231 -3 -39 12 -40 11 -138 -53 -301 -197 -528 -456
-683 -780 -214 -449 -246 -934 -93 -1425 23 -76 28 -84 68 -108 58 -33 110
-96 125 -150 7 -24 11 -72 9 -107 -3 -48 -1 -62 9 -60 8 1 10 -2 7 -8 -12 -19
98 -168 208 -285 44 -47 61 -58 112 -71 118 -30 181 -86 157 -138 -10 -23 -7
-27 37 -55 26 -17 61 -36 78 -42 17 -6 34 -17 37 -25 3 -8 10 -14 16 -14 6 0
9 4 5 9 -9 16 15 55 48 78 58 39 127 56 247 60 331 14 479 -156 209 -238 -53
-16 -99 -22 -177 -23 -93 0 -102 -2 -76 -13 72 -30 277 0 356 52 35 24 38 24
38 6 0 -40 -120 -111 -187 -111 -8 0 -11 -5 -8 -10 14 -23 107 0 168 42 24 17
27 18 27 3 0 -9 -13 -30 -30 -47 -16 -16 -30 -31 -30 -34 0 -11 29 -2 41 12
12 14 14 14 20 -4 14 -37 258 -38 354 -2 35 13 35 14 35 -15 0 -22 4 -25 28
-21 15 2 28 5 30 5 2 1 -4 11 -12 23 -31 43 -18 49 37 18 36 -20 67 -30 93
-29 l39 0 -54 20 c-106 37 -150 93 -116 145 17 27 96 67 153 79 54 11 38 -23
-21 -45 -61 -24 -77 -37 -77 -66 0 -26 29 -49 88 -69 25 -9 38 -20 40 -34 2
-12 10 -21 17 -21 11 0 13 8 8 32 l-6 32 28 -22 c15 -12 41 -22 59 -22 l31 1
-30 16 c-39 20 -85 63 -85 80 0 18 8 16 38 -7 14 -11 56 -30 95 -41 68 -21 70
-21 128 -4 33 10 57 20 55 23 -3 2 -20 -1 -39 -7 -63 -21 -225 29 -261 81 -26
36 -20 53 10 29 56 -44 132 -64 265 -69 115 -4 129 -2 165 17 28 16 32 21 14
17 -115 -25 -283 -14 -369 25 -50 22 -101 65 -101 86 0 18 8 16 38 -7 14 -11
57 -30 96 -43 92 -28 281 -31 368 -4 68 21 68 21 68 1 0 -9 6 -14 13 -11 7 2
11 17 9 36 -5 47 46 93 132 120 37 12 84 21 102 21 29 0 38 6 55 34 13 22 30
36 49 40 17 3 30 11 30 17 0 6 -9 9 -20 6 -22 -6 -25 5 -10 32 6 12 26 21 58
25 31 4 56 14 68 27 19 21 19 22 -1 16 -11 -4 -39 -11 -63 -16 -43 -9 -43 -9
-40 17 3 22 11 28 58 40 42 10 59 11 73 2 28 -17 33 -4 14 35 -24 50 -21 78 4
33 11 -21 24 -38 29 -38 14 0 13 6 -12 53 -29 55 -32 185 -5 234 46 86 137
142 244 151 l62 5 36 91 c149 386 173 797 70 1197 -177 688 -753 1237 -1451
1385 -143 30 -159 30 -198 -3 -81 -68 -184 -82 -274 -37 -29 14 -60 37 -71 50
-19 24 -37 27 -101 18z m273 -316 c181 -100 106 -379 -102 -381 -173 -1 -268
191 -164 331 59 79 174 100 266 50z m-790 -100 c85 -48 128 -159 97 -253 -19
-59 -87 -120 -148 -135 -77 -18 -143 0 -197 55 -51 50 -69 99 -63 171 13 152
176 236 311 162z m453 -412 c159 -73 248 -259 200 -417 -10 -30 -20 -60 -23
-68 -5 -12 9 -13 83 -7 258 19 299 19 354 1 58 -19 130 -79 158 -129 14 -26
18 -76 24 -291 3 -143 8 -303 10 -355 2 -79 0 -95 -12 -95 -8 0 -16 7 -17 15
-9 71 -15 93 -23 80 -19 -36 -20 -138 -3 -244 16 -102 16 -109 0 -121 -13 -9
-15 -18 -9 -36 15 -41 5 -49 -59 -49 -63 0 -71 6 -39 35 11 10 20 26 20 36 0
10 5 21 11 25 16 9 3 123 -20 185 -11 27 -40 72 -65 100 -25 28 -46 55 -46 60
0 5 -4 9 -10 9 -14 0 -36 -48 -50 -112 -12 -52 -18 -61 -72 -103 -36 -28 -75
-71 -103 -114 -34 -54 -48 -68 -63 -64 -14 3 -22 -3 -32 -26 -12 -30 -15 -31
-74 -31 l-61 0 30 32 c17 17 62 63 102 102 112 111 193 288 149 326 -13 10
-17 8 -26 -15 -5 -14 -10 -31 -10 -36 0 -6 -8 -9 -17 -7 -13 3 -17 12 -15 35
4 44 -26 54 -41 13 -16 -43 -43 -36 -39 10 2 30 -2 38 -27 52 -28 15 -36 15
-121 0 -78 -13 -105 -14 -188 -4 -122 15 -252 16 -252 1 0 -6 4 -18 9 -28 5
-9 32 -104 59 -210 40 -154 47 -194 36 -198 -8 -3 -14 -19 -14 -39 l0 -34 -60
0 c-33 0 -60 3 -60 6 0 4 16 23 36 42 33 32 36 39 31 75 -6 47 -49 131 -122
242 -29 44 -56 90 -59 103 -9 27 -18 28 -42 1 -10 -12 -50 -37 -89 -56 -113
-57 -122 -71 -85 -142 21 -42 73 -91 96 -91 8 0 14 -10 14 -26 0 -17 6 -28 19
-31 11 -3 23 -21 30 -46 7 -23 15 -50 17 -59 13 -46 -39 -7 -168 124 -165 168
-176 184 -152 233 8 19 38 55 66 80 27 26 47 49 45 52 -3 2 -20 12 -39 22 -27
14 -44 38 -88 127 -90 181 -92 184 -185 199 -21 4 -52 13 -67 21 -21 11 -38
12 -66 5 -63 -16 -178 -12 -196 7 -23 27 -30 67 -12 81 21 18 126 176 126 191
0 6 12 22 27 34 l28 24 -23 45 c-30 60 -28 74 6 37 l27 -30 48 22 c45 22 47
24 42 58 -6 35 -6 35 12 13 10 -12 37 -29 61 -39 28 -11 41 -21 38 -30 -7 -19
26 -39 97 -59 49 -14 87 -16 261 -9 l204 7 -15 41 c-22 59 -21 170 1 234 66
192 298 292 482 208z m1486 -783 c52 -30 75 -74 83 -156 3 -39 2 -103 -4 -142
-9 -62 -14 -74 -45 -101 -41 -36 -45 -55 -14 -69 12 -6 31 -23 42 -38 19 -25
21 -43 21 -150 0 -107 -3 -128 -23 -169 -34 -69 -68 -82 -224 -86 l-128 -4 0
472 0 473 130 -5 c103 -5 136 -10 162 -25z m478 20 c0 -5 25 -210 55 -456 30
-246 55 -454 55 -462 0 -12 -14 -15 -59 -15 l-58 0 -7 73 c-4 39 -10 94 -13
120 l-6 48 -71 -3 -71 -3 -12 -105 c-6 -58 -12 -111 -12 -117 -1 -9 -20 -13
-62 -13 l-61 0 6 38 c3 20 28 226 56 457 28 231 53 426 55 433 5 13 205 18
205 5z m-880 -868 l0 -65 -80 0 -80 0 0 65 0 65 80 0 80 0 0 -65z m202 -386
c163 -35 278 -160 278 -304 0 -130 -88 -231 -227 -260 -32 -6 -33 -6 -33 27 0
30 4 35 38 47 88 31 143 103 144 190 1 161 -173 277 -343 227 -31 -8 -64 -25
-74 -36 -13 -15 -31 -20 -67 -20 -26 0 -48 4 -48 8 0 12 71 78 100 92 70 37
150 46 232 29z m-1747 -19 c97 -14 161 -37 201 -72 95 -83 -27 -175 -248 -185
-161 -8 -280 20 -340 82 -37 37 -35 61 7 100 69 65 227 96 380 75z m2133 -56
c28 -8 25 -40 -3 -37 -111 14 -172 27 -185 40 -14 14 -6 15 75 9 50 -3 100 -8
113 -12z m-358 -26 c53 -19 100 -61 125 -111 28 -57 32 -102 11 -150 -16 -38
-76 -94 -112 -103 -28 -7 -45 3 -25 15 8 5 11 17 7 28 -4 13 1 26 14 38 19 17
27 45 13 45 -3 0 -15 -7 -25 -17 -17 -15 -18 -14 -18 38 0 62 -23 138 -47 157
-9 6 -29 12 -44 12 -19 0 -30 6 -34 20 -3 11 -13 20 -21 20 -11 0 -13 -6 -9
-22 6 -17 4 -20 -10 -15 -9 4 -25 7 -36 7 -49 0 12 38 86 53 25 5 91 -3 125
-15z m309 -29 c56 -12 64 -18 51 -39 -7 -12 -14 -11 -40 9 -34 25 -51 21 -33
-8 12 -20 8 -31 -13 -31 -10 0 -54 61 -54 76 0 7 37 4 89 -7z m-470 -48 c77
-27 106 -47 122 -84 16 -39 -10 -74 -81 -109 -152 -74 -435 -54 -532 39 -67
64 -5 132 152 169 84 20 260 12 339 -15z m520 -30 c18 -11 4 -19 -50 -27 l-44
-6 30 20 c34 23 44 25 64 13z m-2498 -35 c148 -82 428 -82 552 0 42 28 52 27
42 -5 -32 -103 -369 -146 -547 -69 -45 19 -98 67 -98 89 0 13 2 12 51 -15z
m2519 -21 c0 -8 0 -18 1 -22 0 -5 -23 -13 -50 -19 -50 -12 -51 -11 -51 12 0
18 8 26 33 33 48 14 67 13 67 -4z m-1356 -45 c175 -55 176 -155 1 -215 -66
-23 -237 -31 -317 -15 -167 32 -240 106 -170 173 83 80 320 108 486 57z m-564
4 c0 -9 -15 -31 -33 -49 -95 -95 -416 -108 -555 -23 -33 20 -69 64 -60 73 3 3
25 -6 49 -20 154 -85 446 -80 564 11 36 28 35 28 35 8z m978 -107 c48 -18 79
-21 202 -22 156 0 214 12 293 62 31 20 37 21 37 7 0 -26 -65 -81 -117 -98
-129 -42 -274 -44 -401 -4 -69 21 -132 70 -132 103 0 14 4 14 30 -5 17 -12 56
-31 88 -43z m-1453 -33 c145 -33 356 -7 445 56 26 18 30 19 30 5 0 -9 -12 -29
-28 -44 -95 -95 -428 -110 -560 -24 -33 22 -62 58 -62 79 0 2 24 -9 53 -25 28
-17 84 -38 122 -47z m1453 -46 c40 -14 92 -22 172 -25 135 -6 225 11 307 58
58 32 60 31 39 -9 -67 -129 -532 -136 -620 -10 -27 38 -20 52 14 28 17 -12 56
-31 88 -42z m-1589 23 c62 -44 149 -64 281 -65 135 -1 239 22 292 64 15 11 29
20 32 20 14 0 4 -31 -19 -58 -22 -27 -31 -29 -112 -35 -88 -7 -171 -25 -209
-45 -14 -7 -41 -7 -94 3 -93 16 -130 30 -130 49 0 8 -19 31 -42 50 -44 38 -44
49 1 17z m1294 -60 c-60 -80 -265 -123 -434 -91 -78 15 -177 64 -191 95 -16
37 -5 40 39 11 126 -83 437 -79 564 7 39 27 50 17 22 -22z m215 -1 c52 -41
157 -65 287 -64 133 0 212 17 278 60 46 30 58 24 31 -14 -71 -98 -372 -132
-534 -61 -49 22 -100 65 -100 86 0 18 8 16 38 -7z m-898 -10 c0 -5 -5 -10 -11
-10 -5 0 -7 5 -4 10 3 6 8 10 11 10 2 0 4 -4 4 -10z m683 -68 c-46 -61 -163
-96 -321 -95 -106 0 -115 3 -126 39 -6 20 -4 20 61 11 121 -16 311 21 375 73
30 24 36 6 11 -28z m-1187 9 c22 -5 52 -13 68 -16 l29 -6 -21 -21 c-19 -19
-24 -20 -69 -9 -26 7 -53 17 -60 23 -18 15 -17 52 1 45 8 -3 31 -10 52 -16z
m1487 -48 c41 -14 82 -18 202 -18 161 1 221 14 297 66 28 18 26 15 -9 -18 -24
-23 -43 -48 -43 -57 0 -31 -101 -51 -255 -51 -123 1 -147 4 -200 25 -66 26
-115 68 -115 99 0 20 1 20 35 -4 20 -13 59 -32 88 -42z m-293 -25 c-29 -63
-162 -108 -319 -108 -104 0 -121 5 -121 34 0 20 3 21 101 18 122 -4 222 15
294 57 28 16 51 28 53 26 1 -1 -2 -13 -8 -27z m-23 -79 c-21 -18 -42 -42 -47
-53 -15 -40 -184 -72 -307 -60 -60 6 -63 8 -63 33 l0 26 128 1 c134 1 224 21
282 65 42 31 47 21 7 -12z m168 -40 c-4 -5 -20 -9 -36 -9 -36 0 -35 -21 1 -30
23 -5 49 -34 39 -44 -9 -10 -76 14 -93 32 -15 18 -15 20 1 34 34 29 103 43 88
17z m-228 -104 c-8 -20 -136 -45 -236 -45 -104 0 -121 5 -121 34 0 20 3 21
107 18 78 -2 127 2 178 15 72 18 85 14 72 -22z"/>
<path d="M1354 2427 c-167 -18 -327 -76 -339 -124 -9 -39 5 -45 64 -22 51 19
142 41 246 60 97 18 292 13 404 -11 57 -12 121 -28 143 -36 22 -8 42 -14 44
-14 2 0 4 17 4 39 0 37 -2 39 -51 61 -102 44 -345 66 -515 47z"/>
<path d="M2346 2125 c-4 -49 -12 -119 -16 -154 -5 -35 -7 -78 -4 -95 9 -47 37
-126 46 -126 17 0 12 305 -6 400 l-12 65 -8 -90z"/>
<path d="M2930 1980 l0 -150 45 0 c79 0 101 43 93 186 -4 92 -23 114 -94 114
l-44 0 0 -150z"/>
<path d="M2930 1565 l0 -155 48 0 c71 0 86 21 91 121 6 147 -15 189 -94 189
l-45 0 0 -155z"/>
<path d="M3456 2118 c-2 -7 -9 -85 -15 -173 -7 -88 -14 -193 -18 -232 l-6 -73
56 0 c31 0 58 3 60 8 2 4 -2 63 -8 132 -7 69 -16 176 -20 238 -6 101 -9 112
-26 112 -11 0 -21 -6 -23 -12z"/>
<path d="M930 914 c-105 -22 -146 -69 -100 -112 67 -63 350 -71 458 -13 12 6
25 23 28 38 10 38 -29 68 -115 87 -84 19 -183 19 -271 0z m286 -29 c27 -8 58
-21 69 -30 20 -15 20 -15 -3 -35 -38 -31 -99 -44 -217 -44 -115 0 -179 13
-214 42 -29 23 -15 40 50 63 69 23 242 26 315 4z"/>
<path d="M1065 868 c-32 -27 -69 -48 -82 -48 -4 0 -14 4 -22 9 -12 8 -12 12
-2 24 17 22 -5 33 -27 14 -9 -8 -29 -17 -44 -21 -34 -8 -37 -26 -4 -26 13 0
40 -7 61 -15 44 -19 89 -8 125 30 36 38 119 31 104 -8 -4 -12 -1 -17 10 -17 9
0 19 7 22 15 4 8 17 15 31 15 38 0 22 24 -23 33 -107 21 -119 20 -149 -5z"/>
<path d="M2432 779 c-89 -17 -134 -68 -97 -109 10 -11 40 -27 69 -37 70 -25
280 -24 346 1 121 46 103 115 -38 145 -61 13 -216 13 -280 0z m300 -29 c20 -6
46 -19 58 -28 21 -17 21 -19 6 -35 -53 -52 -310 -65 -408 -20 -27 12 -48 27
-48 32 0 17 47 43 103 57 59 15 229 12 289 -6z"/>
<path d="M2455 740 c-3 -5 -22 -10 -41 -10 -39 0 -44 -23 -6 -28 11 -2 26 -10
32 -18 18 -21 33 -17 27 7 -4 15 1 23 20 30 32 12 52 6 98 -31 38 -30 100 -41
120 -21 6 5 23 11 38 13 33 4 37 22 5 26 -13 2 -27 10 -31 18 -4 8 -15 14 -24
14 -11 0 -14 -6 -9 -25 6 -23 3 -25 -25 -25 -21 0 -43 10 -66 30 -28 25 -43
30 -83 30 -27 0 -52 -4 -55 -10z"/>
<path d="M1650 650 c-92 -17 -140 -46 -140 -85 0 -49 108 -85 254 -85 237 0
344 95 176 156 -52 18 -223 27 -290 14z m265 -35 c28 -8 59 -21 70 -30 20 -15
20 -15 -3 -35 -84 -71 -424 -58 -450 18 -6 19 81 53 157 61 80 9 159 4 226
-14z"/>
<path d="M1668 615 c-3 -3 -25 -9 -48 -13 -48 -8 -68 -32 -27 -32 14 0 27 -7
31 -15 3 -8 13 -15 22 -15 11 0 14 5 10 17 -16 39 68 46 104 8 34 -36 84 -48
128 -30 19 8 46 15 59 15 32 0 25 24 -8 28 -13 2 -32 11 -41 19 -21 19 -45 8
-28 -12 7 -8 9 -19 5 -26 -12 -18 -64 -2 -102 31 -31 28 -89 41 -105 25z"/>
<path d="M3533 1026 c-77 -36 -108 -88 -108 -182 0 -72 5 -91 23 -80 6 3 5 23
-1 50 -19 85 42 182 132 206 22 6 43 15 46 20 11 18 -39 10 -92 -14z"/>
<path d="M3577 1003 c-3 -5 -2 -15 2 -22 7 -10 10 -10 16 -1 4 6 3 16 -3 22
-5 5 -12 6 -15 1z"/>
<path d="M672 463 c18 -15 36 -32 40 -38 10 -14 19 0 12 19 -6 17 -53 46 -74
46 -6 0 3 -12 22 -27z"/>
<path d="M1190 369 c-88 -14 -148 -41 -156 -73 -8 -32 -1 -42 44 -65 111 -56
374 -47 443 15 27 24 24 60 -6 80 -61 40 -211 60 -325 43z m235 -34 c57 -15
95 -38 95 -57 0 -5 -21 -19 -47 -30 -59 -26 -229 -36 -315 -19 -58 12 -113 45
-102 62 31 51 245 76 369 44z"/>
<path d="M1311 329 c-13 -5 -37 -20 -53 -34 -17 -14 -42 -25 -59 -25 -29 0
-39 13 -19 25 17 10 11 25 -9 25 -10 0 -21 -6 -24 -14 -3 -8 -18 -16 -34 -18
-39 -4 -31 -21 14 -31 94 -20 108 -20 139 6 46 38 73 49 105 42 22 -5 29 -11
25 -22 -10 -24 4 -36 22 -20 10 8 26 17 36 18 30 6 32 29 3 29 -13 0 -41 7
-60 15 -41 17 -52 18 -86 4z"/>
<path d="M2986 354 c-22 -8 -48 -22 -58 -31 -19 -17 -24 -43 -8 -43 6 0 10 4
10 10 0 5 22 21 49 35 77 39 81 56 7 29z"/>
</g>
</svg>
